<svg width="21" height="20" viewBox="0 0 21 20" fill="none" xmlns="http://www.w3.org/2000/svg">
<g id="Icon/line/Phone Call">
<path id="Vector" fill-rule="evenodd" clip-rule="evenodd" d="M3.63951 10.063C3.65935 10.0903 3.67754 10.1184 3.69407 10.149C4.37361 11.3807 5.30198 12.5925 6.45356 13.7515C7.5142 14.8038 8.67404 15.685 9.89919 16.3645C14.4997 18.9427 15.848 18.379 16.2118 18.0161L17.3005 16.915C17.3303 16.8852 17.3617 16.8588 17.394 16.8332L18.0016 16.2264C18.1876 16.0404 18.4091 15.766 18.4091 15.513C18.4091 15.2593 18.1876 14.9848 18.0016 14.7988L15.8976 12.6959C15.7116 12.509 15.4372 12.2875 15.1842 12.2875C14.9312 12.2875 14.6568 12.509 14.4716 12.695C14.4427 12.724 14.4121 12.7496 14.3807 12.7736L13.0398 14.1135C12.7934 14.3599 12.4189 14.4252 12.1023 14.2772C9.37425 12.9885 7.25379 10.864 5.80047 7.9609C5.64175 7.64265 5.70375 7.25744 5.95589 7.00697L7.37531 5.58846C7.56049 5.40247 7.78287 5.1272 7.78287 4.87425C7.78287 4.62047 7.56049 4.34603 7.37531 4.16004L5.27139 2.05625C5.08539 1.87109 4.81093 1.64872 4.55713 1.64872C4.30334 1.64872 4.02888 1.87109 3.84287 2.05625C3.81477 2.08519 3.78501 2.11081 3.75359 2.13478L3.17326 2.71425C3.16416 2.72417 3.15507 2.73327 3.14598 2.74236L2.03987 3.84757C1.68687 4.20716 1.12968 5.53969 3.63951 10.063ZM15.2024 20C13.7144 20 11.7088 19.2742 9.094 17.8078C7.73906 17.0564 6.45604 16.0842 5.28462 14.9203C4.05037 13.6787 3.04843 12.3768 2.3011 11.0451C2.28126 11.0194 2.26473 10.9922 2.24819 10.9632C-0.106216 6.74823 -0.545188 4.11788 0.866796 2.68367L1.97704 1.57267C1.97787 1.57267 1.97869 1.57185 1.97869 1.57102L2.00101 1.5487L2.66154 0.887393C2.69212 0.856808 2.72602 0.828702 2.76074 0.803077C3.92306 -0.294693 5.28627 -0.267414 6.44033 0.887393L8.54425 2.99118C9.13533 3.58222 9.43625 4.21625 9.43625 4.87425C9.43625 5.53225 9.13533 6.16545 8.54425 6.75732L7.55471 7.74515C8.72364 9.86051 10.3134 11.4633 12.2933 12.5231L13.2894 11.527C13.32 11.4956 13.3531 11.4675 13.3878 11.4427C14.5493 10.3416 15.9125 10.3705 17.0674 11.527L19.1705 13.63C19.7624 14.221 20.0625 14.855 20.0625 15.513C20.0625 16.171 19.7624 16.8042 19.1705 17.3953L18.5092 18.0566L18.5083 18.0558C18.4835 18.0814 18.4554 18.1054 18.4265 18.1277L17.3824 19.1833C16.8359 19.7264 16.1167 20 15.2024 20Z" fill="#EB2127"/>
</g>
</svg>
