<?xml version="1.0" encoding="UTF-8"?>
<svg width="31px" height="29px" viewBox="0 0 31 29" version="1.1" xmlns="http://www.w3.org/2000/svg" xmlns:xlink="http://www.w3.org/1999/xlink">
    <title>B1B44784-F415-4528-8AAD-D1BA740A6AB7@2x</title>
    <g id="Wireframe" stroke="none" stroke-width="1" fill="none" fill-rule="evenodd">
        <g id="redx-C2C-homepage" transform="translate(-705.000000, -2765.000000)" fill="#EB2127">
            <g id="Group-7-Copy-4" transform="translate(705.000000, 2765.000000)">
                <path d="M18,25.6538462 C18,27.5014808 19.343,29 21,29 L28,29 C29.6565,29 31,27.5014808 31,25.6538462 L31,15.6153846 C31,13.76775 29.6565,12.2692308 28,12.2692308 L22,12.2692308 L22,11.1538462 C22,7.46917308 24.671,4.47659615 27.975,4.46153846 C29.079,4.44982692 29.9755,3.46215385 30,2.23076923 C30,0.998826923 29.1045,0 28,0 C22.477,0 18,4.99357692 18,11.1538462 L18,25.6538462 Z" id="Fill-4"></path>
                <path d="M0,11.1538462 C0,4.99357692 4.477,0 10,0 C11.1045,0 12,0.998826923 12,2.23076923 C11.9755,3.46215385 11.079,4.44982692 9.975,4.46153846 C6.671,4.47659615 4,7.46917308 4,11.1538462 L4,12.2692308 L10,12.2692308 C11.6565,12.2692308 13,13.76775 13,15.6153846 L13,25.6538462 C13,27.5014808 11.6565,29 10,29 L3,29 C1.343,29 0,27.5014808 0,25.6538462 L0,11.1538462 Z" id="Fill-1"></path>
            </g>
        </g>
    </g>
</svg>